<?xml version="1.0" standalone="no"?><!DOCTYPE svg PUBLIC "-//W3C//DTD SVG 1.1//EN" "http://www.w3.org/Graphics/SVG/1.1/DTD/svg11.dtd"><svg t="1594208671346" class="icon" viewBox="0 0 1024 1024" version="1.1" xmlns="http://www.w3.org/2000/svg" p-id="808" width="200" height="200" data-spm-anchor-id="a313x.7781069.0.i2" xmlns:xlink="http://www.w3.org/1999/xlink"><defs><style type="text/css"></style></defs><path d="M511.79957685 961.37692315c-56.00769258 0-110.35384628-10.93846114-161.51538427-32.60769258a412.61538427 412.61538427 0 0 1-131.9538463-88.89230742 414.06923057 414.06923057 0 0 1 52.20000001-630.48461573 32.53846114 32.53846114 0 0 1 37.8 52.61538516 354.80769258 354.80769258 0 0 0-106.61538515 122.19230742A344.35384629 344.35384629 0 0 0 161.69957685 546.47692315c0 93.46153887 36.41538428 181.38461573 102.53076944 247.5a347.81538427 347.81538427 0 0 0 247.56923056 102.6c93.46153887 0 181.45384628-36.41538428 247.63846202-102.6a347.53846114 347.53846114 0 0 0 102.53076855-247.5 344.07692315 344.07692315 0 0 0-40.01538427-162.27692315 354.46153886 354.46153886 0 0 0-106.61538428-122.05384628 32.4 32.4 0 0 1 37.8-52.68461485 414 414 0 0 1 52.2 630.55384541 414 414 0 0 1-293.53846202 121.43076944z m9.76153888-450.20769258a32.4 32.4 0 0 1-32.46923145-32.4V94.53846114a32.53846114 32.53846114 0 0 1 65.00769257-1e-8v384.23076944c0 18-14.53846113 32.4-32.53846112 32.4z" p-id="809"></path></svg>